<?xml version="1.0" encoding="UTF-8" standalone="no"?>
<svg
   height="128px"
   viewBox="0 0 128 128"
   width="128px"
   version="1.1"
   id="svg62"
   sodipodi:docname="cz.pervoj.CloudSynchronizer.Devel.svg"
   inkscape:version="1.1.1 (3bf5ae0d25, 2021-09-20)"
   xmlns:inkscape="http://www.inkscape.org/namespaces/inkscape"
   xmlns:sodipodi="http://sodipodi.sourceforge.net/DTD/sodipodi-0.dtd"
   xmlns="http://www.w3.org/2000/svg"
   xmlns:svg="http://www.w3.org/2000/svg">
  <defs
     id="defs66" />
  <sodipodi:namedview
     id="namedview64"
     pagecolor="#ffffff"
     bordercolor="#666666"
     borderopacity="1.0"
     inkscape:pageshadow="2"
     inkscape:pageopacity="0.0"
     inkscape:pagecheckerboard="0"
     showgrid="false"
     inkscape:zoom="5.6171875"
     inkscape:cx="58.125174"
     inkscape:cy="62.842837"
     inkscape:window-width="1680"
     inkscape:window-height="981"
     inkscape:window-x="0"
     inkscape:window-y="32"
     inkscape:window-maximized="1"
     inkscape:current-layer="svg62" />
  <clipPath
     id="a">
    <rect
       height="128"
       width="128"
       id="rect2" />
  </clipPath>
  <clipPath
     id="b">
    <rect
       height="128"
       width="128"
       id="rect5" />
  </clipPath>
  <filter
     id="c"
     height="1"
     width="1"
     x="0"
     y="0">
    <feColorMatrix
       in="SourceGraphic"
       type="matrix"
       values="0 0 0 0 1 0 0 0 0 1 0 0 0 0 1 0 0 0 1 0"
       id="feColorMatrix8" />
  </filter>
  <mask
     id="d">
    <g
       clip-path="url(#b)"
       filter="url(#c)"
       id="g23">
      <g
         clip-path="url(#a)"
         id="g21">
        <path
           d="m 66.386719 33.511719 c -10.410157 0.03125 -20.175781 5.050781 -26.257813 13.5 c -1.828125 -0.425781 -3.699218 -0.652344 -5.574218 -0.671875 c -14.394532 0 -26.0625 11.664062 -26.058594 26.058594 c 0 14.390624 11.664062 26.058593 26.058594 26.058593 c 0.199218 -0.003906 0.398437 -0.007812 0.59375 -0.015625 v 0.015625 h 62.289062 v -0.003906 c 12.191406 -0.019531 22.066406 -9.90625 22.066406 -22.097656 c 0 -12.207031 -9.894531 -22.101563 -22.097656 -22.101563 c -0.246094 0.015625 -0.488281 0.03125 -0.734375 0.054688 c -4.828125 -12.527344 -16.863281 -20.792969 -30.285156 -20.796875 z m 0 0"
           fill="#c0bfbc"
           fill-rule="evenodd"
           id="path11" />
        <path
           d="m 66.386719 31.742188 c -10.410157 0.027343 -20.175781 5.046874 -26.257813 13.496093 c -1.828125 -0.425781 -3.699218 -0.648437 -5.574218 -0.671875 c -14.394532 0 -26.0625 11.667969 -26.058594 26.058594 c 0 14.390625 11.664062 26.058594 26.058594 26.058594 c 0.199218 -0.003906 0.398437 -0.007813 0.59375 -0.015625 v 0.015625 h 62.289062 v -0.003906 c 12.191406 -0.015626 22.066406 -9.90625 22.066406 -22.097657 c 0 -12.207031 -9.894531 -22.101562 -22.097656 -22.101562 c -0.246094 0.015625 -0.488281 0.03125 -0.734375 0.054687 c -4.828125 -12.527344 -16.863281 -20.789062 -30.285156 -20.792968 z m 0 0"
           fill="#f6f5f4"
           fill-rule="evenodd"
           id="path13" />
        <path
           d="m 66.230469 33.859375 c -9.738281 0.027344 -18.871094 4.722656 -24.5625 12.625 c -1.710938 -0.394531 -3.460938 -0.605469 -5.214844 -0.628906 c -13.464844 0 -24.378906 10.914062 -24.378906 24.378906 s 10.914062 24.378906 24.378906 24.378906 c 0.183594 -0.003906 0.371094 -0.007812 0.558594 -0.015625 v 0.015625 h 58.269531 v -0.003906 c 11.40625 -0.015625 20.644531 -9.265625 20.644531 -20.671875 c 0 -11.417969 -9.257812 -20.675781 -20.675781 -20.675781 c -0.226562 0.011719 -0.457031 0.027343 -0.683594 0.050781 c -4.515625 -11.71875 -15.777344 -19.449219 -28.335937 -19.453125 z m 0 0"
           fill="#1a5fb4"
           fill-rule="evenodd"
           id="path15" />
        <path
           d="m 66.230469 29.542969 c -9.738281 0.03125 -18.871094 4.726562 -24.5625 12.628906 c -1.710938 -0.398437 -3.460938 -0.609375 -5.214844 -0.628906 c -13.464844 0 -24.378906 10.914062 -24.378906 24.378906 s 10.914062 24.378906 24.378906 24.375 c 0.183594 0 0.371094 -0.003906 0.558594 -0.011719 v 0.011719 h 58.269531 c 11.40625 -0.015625 20.644531 -9.269531 20.644531 -20.671875 c 0 -11.421875 -9.257812 -20.675781 -20.675781 -20.675781 c -0.226562 0.011719 -0.457031 0.027343 -0.683594 0.046875 c -4.515625 -11.71875 -15.777344 -19.449219 -28.335937 -19.453125 z m 0 0"
           fill="#3584e4"
           fill-rule="evenodd"
           id="path17" />
        <path
           d="m 72.519531 240.394531 l 4.273438 -2.023437 l 2.464843 3.5 m -23.777343 -10.148438 l -4.269531 2.023438 l -2.46875 -3.5 m 28.050781 8.125 c -1.320313 4.789062 -6.539063 8.363281 -12.777344 8.363281 c -6.273437 0 -11.515625 -3.613281 -12.796875 -8.441406 m -0.007812 -4.546875 c 1.265624 -4.847656 6.519531 -8.480469 12.808593 -8.480469 c 6.195313 0 11.386719 3.527344 12.746094 8.265625"
           fill="none"
           stroke="#ffffff"
           stroke-linecap="round"
           stroke-linejoin="round"
           stroke-width="2.52118"
           transform="matrix(1 0 0 1 0 -172)"
           id="path19" />
      </g>
    </g>
  </mask>
  <mask
     id="e">
    <g
       filter="url(#c)"
       id="g28">
      <rect
         fill-opacity="0.8"
         height="128"
         width="128"
         id="rect26" />
    </g>
  </mask>
  <linearGradient
     id="f"
     gradientTransform="matrix(0 0.37 -0.98462 0 295.38501 -30.360001)"
     gradientUnits="userSpaceOnUse"
     x1="300"
     x2="428"
     y1="235"
     y2="235">
    <stop
       offset="0"
       stop-color="#f9f06b"
       id="stop31" />
    <stop
       offset="1"
       stop-color="#f5c211"
       id="stop33" />
  </linearGradient>
  <clipPath
     id="g">
    <rect
       height="128"
       width="128"
       id="rect36" />
  </clipPath>
  <clipPath
     id="h">
    <rect
       height="128"
       width="128"
       id="rect39" />
  </clipPath>
  <g
     id="g932">
    <path
       d="m 66.386719,33.511719 c -10.410157,0.03125 -20.175781,5.050781 -26.257813,13.5 -1.828125,-0.425781 -3.699218,-0.652344 -5.574218,-0.671875 -14.394532,0 -26.0625,11.664062 -26.058594,26.058594 0,14.390624 11.664062,26.058593 26.058594,26.058593 0.199218,-0.0039 0.398437,-0.0078 0.59375,-0.01563 v 0.01563 H 97.4375 v -0.0039 c 12.19141,-0.01953 22.06641,-9.90625 22.06641,-22.097656 0,-12.207031 -9.89453,-22.101563 -22.09766,-22.101563 -0.246094,0.01563 -0.488281,0.03125 -0.734375,0.05469 C 91.84375,41.78125 79.808594,33.515625 66.386719,33.511719 Z m 0,0"
       fill="#c0bfbc"
       id="path42"
       style="fill-rule:evenodd" />
    <path
       d="m 66.386719,31.742188 c -10.410157,0.02734 -20.175781,5.046874 -26.257813,13.496093 -1.828125,-0.425781 -3.699218,-0.648437 -5.574218,-0.671875 -14.394532,0 -26.0625,11.667969 -26.058594,26.058594 0,14.390625 11.664062,26.058594 26.058594,26.058594 0.199218,-0.0039 0.398437,-0.0078 0.59375,-0.01563 v 0.01563 H 97.4375 v -0.0039 c 12.19141,-0.01563 22.06641,-9.90625 22.06641,-22.097657 0,-12.207031 -9.89453,-22.101562 -22.09766,-22.101562 -0.246094,0.01563 -0.488281,0.03125 -0.734375,0.05469 C 91.84375,40.007812 79.808594,31.746094 66.386719,31.742188 Z m 0,0"
       fill="#f6f5f4"
       id="path44"
       style="fill-rule:evenodd" />
    <g
       clip-path="url(#h)"
       mask="url(#d)"
       id="g60">
      <g
         clip-path="url(#g)"
         mask="url(#e)"
         id="g58">
        <path
           d="m 128 80.640625 v 47.359375 h -128 v -47.359375 z m 0 0"
           fill="url(#f)"
           id="path54" />
        <path
           d="m 13.308594 80.640625 l 47.355468 47.359375 h 21.214844 l -47.359375 -47.359375 z m 42.421875 0 l 47.363281 47.359375 h 21.214844 l -47.363282 -47.359375 z m 42.429687 0 l 29.839844 29.839844 v -21.210938 l -8.628906 -8.628906 z m -98.160156 7.90625 v 21.214844 l 18.238281 18.238281 h 21.214844 z m 0 0"
           id="path56" />
      </g>
    </g>
    <path
       d="m 66.230469,33.859375 c -9.738281,0.02734 -18.871094,4.722656 -24.5625,12.625 -1.710938,-0.394531 -3.460938,-0.605469 -5.214844,-0.628906 -13.464844,0 -24.378906,10.914062 -24.378906,24.378906 0,13.464844 10.914062,24.378906 24.378906,24.378906 0.183594,-0.0039 0.371094,-0.0078 0.558594,-0.01563 v 0.01563 H 95.28125 v -0.0039 c 11.40625,-0.01563 20.64453,-9.265625 20.64453,-20.671875 0,-11.417969 -9.25781,-20.675781 -20.67578,-20.675781 -0.226562,0.01172 -0.457031,0.02734 -0.683594,0.05078 C 90.050781,41.59375 78.789062,33.863281 66.230469,33.859375 Z m 0,0"
       fill="#1a5fb4"
       id="path46"
       style="fill-rule:evenodd" />
    <path
       d="m 66.230469,29.542969 c -9.738281,0.03125 -18.871094,4.726562 -24.5625,12.628906 -1.710938,-0.398437 -3.460938,-0.609375 -5.214844,-0.628906 -13.464844,0 -24.378906,10.914062 -24.378906,24.378906 0,13.464844 10.914062,24.378906 24.378906,24.375 0.183594,0 0.371094,-0.0039 0.558594,-0.01172 v 0.01172 H 95.28125 c 11.40625,-0.01563 20.64453,-9.269531 20.64453,-20.671875 0,-11.421875 -9.25781,-20.675781 -20.67578,-20.675781 -0.226562,0.01172 -0.457031,0.02734 -0.683594,0.04687 C 90.050781,37.277344 78.789062,29.546875 66.230469,29.542969 Z m 0,0"
       fill="#3584e4"
       id="path48"
       style="fill-rule:evenodd" />
    <path
       d="m 72.519531 68.394531 l 4.273438 -2.023437 l 2.464843 3.5 m -23.777343 -10.148438 l -4.269531 2.023438 l -2.46875 -3.5 m 28.050781 8.125 c -1.320313 4.789062 -6.539063 8.363281 -12.777344 8.363281 c -6.273437 0 -11.515625 -3.613281 -12.796875 -8.441406 m -0.007812 -4.546875 c 1.265624 -4.847656 6.519531 -8.480469 12.808593 -8.480469 c 6.195313 0 11.386719 3.527344 12.746094 8.265625"
       fill="none"
       stroke="#ffffff"
       stroke-linecap="round"
       stroke-linejoin="round"
       stroke-width="2.52118"
       id="path52" />
  </g>
</svg>
