<?xml version="1.0" encoding="UTF-8" standalone="no"?>
<svg
   viewBox="0 0 512 512"
   version="1.1"
   id="svg4"
   sodipodi:docname="blog-solid.svg"
   width="512"
   height="512"
   inkscape:version="1.1.2 (0a00cf5339, 2022-02-04)"
   xmlns:inkscape="http://www.inkscape.org/namespaces/inkscape"
   xmlns:sodipodi="http://sodipodi.sourceforge.net/DTD/sodipodi-0.dtd"
   xmlns="http://www.w3.org/2000/svg"
   xmlns:svg="http://www.w3.org/2000/svg">
  <defs
     id="defs8" />
  <sodipodi:namedview
     id="namedview6"
     pagecolor="#ffffff"
     bordercolor="#666666"
     borderopacity="1.0"
     inkscape:pageshadow="2"
     inkscape:pageopacity="0.0"
     inkscape:pagecheckerboard="0"
     showgrid="false"
     inkscape:zoom="0.6875"
     inkscape:cx="470.54545"
     inkscape:cy="372.36364"
     inkscape:window-width="1680"
     inkscape:window-height="981"
     inkscape:window-x="0"
     inkscape:window-y="0"
     inkscape:window-maximized="1"
     inkscape:current-layer="svg4" />
  <!--! Font Awesome Pro 6.1.1 by @fontawesome - https://fontawesome.com License - https://fontawesome.com/license (Commercial License) Copyright 2022 Fonticons, Inc. -->
  <g
     id="g1137">
    <rect
       style="fill:none;stroke-width:1.83938;stroke:none"
       id="rect32"
       width="512"
       height="512"
       x="0"
       y="0" />
    <path
       d="m 217.6,96.570881 c -12.95,-0.625 -24.66,9.155999 -25.52,22.369999 -0.88,13.23 9.12,24.63 22.32,24.63 79.53,5.188 148.4,74.09 153.6,153.6 0.8281,12.69 11.39,22.43 23.94,22.43 0.5156,0 1.047,-0.0313 1.578,-0.0625 13.22,-0.8438 23.25,-12.28 22.39,-25.5 C 409.3,192.27088 320.3,103.27088 217.6,96.570881 Z M 224,0.47088107 c -17.7,0 -32,14.30999993 -32,31.99999993 0,17.69 14.33,32 32,32 123.5,0 224,100.499999 224,223.999999 0,17.69 14.33,32 32,32 17.67,0 32,-14.31 32,-32 C 512,129.67088 382.8,0.47088107 224,0.47088107 Z M 172.3,227.27088 c -14.6,-2.9 -28.3,9 -28.3,23.8 v 50.37 c 0,10.25 7.127,18.37 16.75,21.1 18.13,6.75 31.26,24.38 31.26,44.1 0,26.5 -21.5,47.1 -48.01,47.1 -26.5,0 -48.01,-21.5 -48.01,-47.1 v -246.17 c 0,-13.25 -10.75,-23.099999 -24.01,-23.099999 l -48.01,0.0076 C 10.75,96.490881 0,107.27088 0,120.47088 v 247.1 c 0,89.5 82.14,160.2 175,140.7 54.38,-11.5 98.27,-55.5 109.8,-109.7 17.4,-82 -37,-156.3 -112.5,-171.3 z"
       id="path2"
       style="fill:#eeeeee;fill-opacity:1;stroke:none" />
  </g>
</svg>
