<?xml version="1.0" encoding="UTF-8" standalone="no"?>
<svg
   aria-hidden="true"
   focusable="false"
   data-prefix="fas"
   data-icon="file-alt"
   class="svg-inline--fa fa-file-alt fa-w-12"
   role="img"
   viewBox="0 0 16 16"
   version="1.1"
   id="svg4"
   sodipodi:docname="post-default.svg"
   width="16"
   height="16"
   inkscape:version="1.1.1 (3bf5ae0d25, 2021-09-20)"
   xmlns:inkscape="http://www.inkscape.org/namespaces/inkscape"
   xmlns:sodipodi="http://sodipodi.sourceforge.net/DTD/sodipodi-0.dtd"
   xmlns="http://www.w3.org/2000/svg"
   xmlns:svg="http://www.w3.org/2000/svg"
   xmlns:rdf="http://www.w3.org/1999/02/22-rdf-syntax-ns#"
   xmlns:cc="http://creativecommons.org/ns#"
   xmlns:dc="http://purl.org/dc/elements/1.1/">
  <title
     id="title10">file-alt</title>
  <defs
     id="defs8" />
  <sodipodi:namedview
     id="namedview6"
     pagecolor="#ffffff"
     bordercolor="#666666"
     borderopacity="1.0"
     inkscape:pageshadow="2"
     inkscape:pageopacity="0.0"
     inkscape:pagecheckerboard="0"
     showgrid="false"
     width="512px"
     inkscape:zoom="11.234375"
     inkscape:cx="3.2489569"
     inkscape:cy="6.3198887"
     inkscape:window-width="1680"
     inkscape:window-height="981"
     inkscape:window-x="0"
     inkscape:window-y="32"
     inkscape:window-maximized="1"
     inkscape:current-layer="svg4" />
  <g
     id="g993"
     transform="scale(0.03125)">
    <rect
       style="opacity:0.25;fill:none;stroke:none;stroke-width:0.201326;stroke-linecap:round;stroke-linejoin:round"
       id="rect847"
       width="512"
       height="512"
       x="0"
       y="0" />
    <path
       fill="currentColor"
       d="M 288,136 V 0 H 88 C 74.7,0 64,10.7 64,24 v 464 c 0,13.3 10.7,24 24,24 h 336 c 13.3,0 24,-10.7 24,-24 V 160 H 312 c -13.2,0 -24,-10.8 -24,-24 z m 64,236 c 0,6.6 -5.4,12 -12,12 H 172 c -6.6,0 -12,-5.4 -12,-12 v -8 c 0,-6.6 5.4,-12 12,-12 h 168 c 6.6,0 12,5.4 12,12 z m 0,-64 c 0,6.6 -5.4,12 -12,12 H 172 c -6.6,0 -12,-5.4 -12,-12 v -8 c 0,-6.6 5.4,-12 12,-12 h 168 c 6.6,0 12,5.4 12,12 z m 0,-72 v 8 c 0,6.6 -5.4,12 -12,12 H 172 c -6.6,0 -12,-5.4 -12,-12 v -8 c 0,-6.6 5.4,-12 12,-12 h 168 c 6.6,0 12,5.4 12,12 z M 448,121.9 V 128 H 320 V 0 h 6.1 c 6.4,0 12.5,2.5 17,7 l 97.9,98 c 4.5,4.5 7,10.6 7,16.9 z"
       id="path2"
       style="opacity:0.25;fill:#000000;fill-opacity:1;stroke:none" />
  </g>
  <metadata
     id="metadata8">
    <rdf:RDF>
      <cc:Work
         rdf:about="">
        <cc:license
           rdf:resource="http://creativecommons.org/licenses/by/4.0/" />
        <dc:creator>
          <cc:Agent>
            <dc:title>Font Awesome</dc:title>
          </cc:Agent>
        </dc:creator>
        <dc:title>file-alt</dc:title>
      </cc:Work>
      <cc:License
         rdf:about="http://creativecommons.org/licenses/by/4.0/">
        <cc:permits
           rdf:resource="http://creativecommons.org/ns#Reproduction" />
        <cc:permits
           rdf:resource="http://creativecommons.org/ns#Distribution" />
        <cc:requires
           rdf:resource="http://creativecommons.org/ns#Notice" />
        <cc:requires
           rdf:resource="http://creativecommons.org/ns#Attribution" />
        <cc:permits
           rdf:resource="http://creativecommons.org/ns#DerivativeWorks" />
      </cc:License>
    </rdf:RDF>
  </metadata>
</svg>
